<mxfile host="app.diagrams.net" modified="2020-06-19T08:51:54.472Z" agent="5.0 (X11)" etag="l_WgiJ5ZjB9P1snfOl7K" version="13.2.6" type="github">
  <diagram name="Page-1" id="2c0d36ab-eaac-3732-788b-9136903baeff">
    <mxGraphModel dx="3376.5" dy="828" grid="1" gridSize="10" guides="1" tooltips="1" connect="1" arrows="1" fold="1" page="1" pageScale="1.5" pageWidth="1169" pageHeight="827" background="#ffffff" math="0" shadow="0">
      <root>
        <mxCell id="0" />
        <mxCell id="1" parent="0" />
        <mxCell id="WBlJyW78sbk73BthA4wj-123" value="" style="fillColor=#12AAB5;strokeColor=none;opacity=30;" vertex="1" parent="1">
          <mxGeometry x="947" y="444.5" width="190" height="81" as="geometry" />
        </mxCell>
        <mxCell id="2mehZbieD86rrKrOiFTV-178" value="" style="fillColor=#F2931E;strokeColor=none;opacity=30;" parent="1" vertex="1">
          <mxGeometry x="807" y="880" width="150" height="200" as="geometry" />
        </mxCell>
        <mxCell id="123" value="" style="fillColor=#AE4132;strokeColor=none;opacity=30;" parent="1" vertex="1">
          <mxGeometry x="747" y="175.50000000000003" width="210" height="99.99999999999994" as="geometry" />
        </mxCell>
        <mxCell id="122" value="" style="fillColor=#10739E;strokeColor=none;opacity=30;" parent="1" vertex="1">
          <mxGeometry x="97" y="325.5" width="1470" height="99.99999999999994" as="geometry" />
        </mxCell>
        <mxCell id="121" value="" style="fillColor=#F2931E;strokeColor=none;opacity=30;" parent="1" vertex="1">
          <mxGeometry x="1557" y="705.5" width="150" height="270" as="geometry" />
        </mxCell>
        <mxCell id="117" value="" style="fillColor=#F2931E;strokeColor=none;opacity=30;" parent="1" vertex="1">
          <mxGeometry x="100" y="535.5" width="1607" height="264.5" as="geometry" />
        </mxCell>
        <mxCell id="116" value="" style="fillColor=#10739E;strokeColor=none;opacity=30;" parent="1" vertex="1">
          <mxGeometry x="1557" y="985.5000000000002" width="150" height="80" as="geometry" />
        </mxCell>
        <mxCell id="112" value="" style="fillColor=#10739E;strokeColor=none;opacity=30;" parent="1" vertex="1">
          <mxGeometry x="-40.00000000000003" y="1140" width="150" height="80" as="geometry" />
        </mxCell>
        <mxCell id="111" value="" style="fillColor=#D9EAD3;strokeColor=none" parent="1" vertex="1">
          <mxGeometry x="110" y="1065.5" width="150" height="80" as="geometry" />
        </mxCell>
        <mxCell id="110" value="" style="fillColor=#12AAB5;strokeColor=none;opacity=30;" parent="1" vertex="1">
          <mxGeometry x="1207" y="445.5000000000001" width="500" height="80" as="geometry" />
        </mxCell>
        <mxCell id="2" value="网银分行特色-深地铁" style="rounded=1;fillColor=#23445D;gradientColor=none;strokeColor=none;fontColor=#FFFFFF;fontStyle=1;fontFamily=Tahoma;fontSize=14" parent="1" vertex="1">
          <mxGeometry x="757" y="185.5" width="190" height="80" as="geometry" />
        </mxCell>
        <mxCell id="4" value="监控微服务" style="rounded=1;fillColor=#23445D;gradientColor=none;strokeColor=none;fontColor=#FFFFFF;fontStyle=1;fontFamily=Tahoma;fontSize=14" parent="1" vertex="1">
          <mxGeometry x="1361.9999999999998" y="335.5" width="190" height="80" as="geometry" />
        </mxCell>
        <mxCell id="9" value="" style="edgeStyle=elbowEdgeStyle;elbow=vertical;strokeWidth=2;rounded=0" parent="1" source="2" target="4" edge="1">
          <mxGeometry x="337" y="215.5" width="100" height="100" as="geometry">
            <mxPoint x="337" y="315.5" as="sourcePoint" />
            <mxPoint x="437" y="215.5" as="targetPoint" />
          </mxGeometry>
        </mxCell>
        <mxCell id="10" value="CSP" style="rounded=1;fillColor=#23445D;gradientColor=none;strokeColor=none;fontColor=#FFFFFF;fontStyle=1;fontFamily=Tahoma;fontSize=14" parent="1" vertex="1">
          <mxGeometry x="947" y="335.5" width="190" height="80" as="geometry" />
        </mxCell>
        <mxCell id="41" value="接口" style="rounded=1;fillColor=#23445D;gradientColor=none;strokeColor=none;fontColor=#FFFFFF;fontStyle=1;fontFamily=Tahoma;fontSize=14" parent="1" vertex="1">
          <mxGeometry x="977" y="455.5" width="130" height="60" as="geometry" />
        </mxCell>
        <mxCell id="42" value="大小额" style="rounded=1;fillColor=#23445D;gradientColor=none;strokeColor=none;fontColor=#FFFFFF;fontStyle=1;fontFamily=Tahoma;fontSize=14" parent="1" vertex="1">
          <mxGeometry x="977" y="545.5" width="130" height="60" as="geometry" />
        </mxCell>
        <mxCell id="43" value="1045" style="rounded=1;fillColor=#23445D;gradientColor=none;strokeColor=none;fontColor=#FFFFFF;fontStyle=1;fontFamily=Tahoma;fontSize=14" parent="1" vertex="1">
          <mxGeometry x="977" y="635.5" width="130" height="60" as="geometry" />
        </mxCell>
        <mxCell id="44" value="额度管理" style="rounded=1;fillColor=#23445D;gradientColor=none;strokeColor=none;fontColor=#FFFFFF;fontStyle=1;fontFamily=Tahoma;fontSize=14" parent="1" vertex="1">
          <mxGeometry x="1217" y="455.50000000000006" width="130" height="60" as="geometry" />
        </mxCell>
        <mxCell id="45" value="额度校验" style="rounded=1;fillColor=#23445D;gradientColor=none;strokeColor=none;fontColor=#FFFFFF;fontStyle=1;fontFamily=Tahoma;fontSize=14" parent="1" vertex="1">
          <mxGeometry x="1217" y="545.5" width="130" height="60" as="geometry" />
        </mxCell>
        <mxCell id="46" value="额度冻结" style="rounded=1;fillColor=#23445D;gradientColor=none;strokeColor=none;fontColor=#FFFFFF;fontStyle=1;fontFamily=Tahoma;fontSize=14" parent="1" vertex="1">
          <mxGeometry x="1217" y="635.5" width="130" height="60" as="geometry" />
        </mxCell>
        <mxCell id="48" value="SSI" style="rounded=1;fillColor=#23445D;gradientColor=none;strokeColor=none;fontColor=#FFFFFF;fontStyle=1;fontFamily=Tahoma;fontSize=14" parent="1" vertex="1">
          <mxGeometry x="1392" y="455.50000000000006" width="130" height="60" as="geometry" />
        </mxCell>
        <mxCell id="49" value="Programming" style="rounded=1;fillColor=#23445D;gradientColor=none;strokeColor=none;fontColor=#FFFFFF;fontStyle=1;fontFamily=Tahoma;fontSize=14" parent="1" vertex="1">
          <mxGeometry x="1392" y="545.5" width="130" height="60" as="geometry" />
        </mxCell>
        <mxCell id="50" value="Client / Server" style="rounded=1;fillColor=#23445D;gradientColor=none;strokeColor=none;fontColor=#FFFFFF;fontStyle=1;fontFamily=Tahoma;fontSize=14" parent="1" vertex="1">
          <mxGeometry x="1392" y="635.5" width="130" height="60" as="geometry" />
        </mxCell>
        <mxCell id="51" value="Data Collection" style="rounded=1;fillColor=#23445D;gradientColor=none;strokeColor=none;fontColor=#FFFFFF;fontStyle=1;fontFamily=Tahoma;fontSize=14" parent="1" vertex="1">
          <mxGeometry x="1392" y="725.5000000000001" width="130" height="60" as="geometry" />
        </mxCell>
        <mxCell id="52" value="XMI" style="rounded=1;fillColor=#23445D;gradientColor=none;strokeColor=none;fontColor=#FFFFFF;fontStyle=1;fontFamily=Tahoma;fontSize=14" parent="1" vertex="1">
          <mxGeometry x="1567" y="455.50000000000006" width="130" height="60" as="geometry" />
        </mxCell>
        <mxCell id="53" value="Programming" style="rounded=1;fillColor=#23445D;gradientColor=none;strokeColor=none;fontColor=#FFFFFF;fontStyle=1;fontFamily=Tahoma;fontSize=14" parent="1" vertex="1">
          <mxGeometry x="1567" y="545.5" width="130" height="60" as="geometry" />
        </mxCell>
        <mxCell id="54" value="HTTP" style="rounded=1;fillColor=#23445D;gradientColor=none;strokeColor=none;fontColor=#FFFFFF;fontStyle=1;fontFamily=Tahoma;fontSize=14" parent="1" vertex="1">
          <mxGeometry x="1567" y="635.5" width="130" height="60" as="geometry" />
        </mxCell>
        <mxCell id="55" value="HTS" style="rounded=1;fillColor=#23445D;gradientColor=none;strokeColor=none;fontColor=#FFFFFF;fontStyle=1;fontFamily=Tahoma;fontSize=14" parent="1" vertex="1">
          <mxGeometry x="1567" y="725.5000000000001" width="130" height="60" as="geometry" />
        </mxCell>
        <mxCell id="56" value="CVS" style="rounded=1;fillColor=#23445D;gradientColor=none;strokeColor=none;fontColor=#FFFFFF;fontStyle=1;fontFamily=Tahoma;fontSize=14" parent="1" vertex="1">
          <mxGeometry x="1567" y="815.5000000000001" width="130" height="60" as="geometry" />
        </mxCell>
        <mxCell id="57" value="Client / Server" style="rounded=1;fillColor=#23445D;gradientColor=none;strokeColor=none;fontColor=#FFFFFF;fontStyle=1;fontFamily=Tahoma;fontSize=14" parent="1" vertex="1">
          <mxGeometry x="1567" y="905.5000000000001" width="130" height="60" as="geometry" />
        </mxCell>
        <mxCell id="58" value="Data Collection" style="rounded=1;fillColor=#23445D;gradientColor=none;strokeColor=none;fontColor=#FFFFFF;fontStyle=1;fontFamily=Tahoma;fontSize=14" parent="1" vertex="1">
          <mxGeometry x="1567" y="995.5000000000001" width="130" height="60" as="geometry" />
        </mxCell>
        <mxCell id="61" value="" style="edgeStyle=elbowEdgeStyle;elbow=vertical;strokeWidth=2;rounded=0;entryX=0.5;entryY=0;entryDx=0;entryDy=0;" parent="1" source="2" target="2mehZbieD86rrKrOiFTV-151" edge="1">
          <mxGeometry x="-23" y="135.5" width="100" height="100" as="geometry">
            <mxPoint x="-23" y="235.5" as="sourcePoint" />
            <mxPoint x="202" y="335.5" as="targetPoint" />
          </mxGeometry>
        </mxCell>
        <mxCell id="82" value="" style="edgeStyle=elbowEdgeStyle;elbow=horizontal;strokeWidth=2;rounded=0" parent="1" source="41" target="42" edge="1">
          <mxGeometry x="-23" y="135.5" width="100" height="100" as="geometry">
            <mxPoint x="-23" y="235.5" as="sourcePoint" />
            <mxPoint x="77" y="135.5" as="targetPoint" />
            <Array as="points">
              <mxPoint x="957" y="535.5" />
            </Array>
          </mxGeometry>
        </mxCell>
        <mxCell id="83" value="" style="edgeStyle=elbowEdgeStyle;elbow=horizontal;strokeWidth=2;rounded=0" parent="1" source="41" target="43" edge="1">
          <mxGeometry x="-23" y="135.5" width="100" height="100" as="geometry">
            <mxPoint x="-23" y="235.5" as="sourcePoint" />
            <mxPoint x="77" y="135.5" as="targetPoint" />
            <Array as="points">
              <mxPoint x="957" y="585.5" />
            </Array>
          </mxGeometry>
        </mxCell>
        <mxCell id="84" value="" style="edgeStyle=elbowEdgeStyle;elbow=horizontal;strokeWidth=2;rounded=0" parent="1" source="44" target="45" edge="1">
          <mxGeometry x="-23" y="135.5" width="100" height="100" as="geometry">
            <mxPoint x="-23" y="235.5" as="sourcePoint" />
            <mxPoint x="77" y="135.5" as="targetPoint" />
            <Array as="points">
              <mxPoint x="1197" y="545.5" />
            </Array>
          </mxGeometry>
        </mxCell>
        <mxCell id="85" value="" style="edgeStyle=elbowEdgeStyle;elbow=horizontal;strokeWidth=2;rounded=0" parent="1" source="44" target="46" edge="1">
          <mxGeometry x="-23" y="135.5" width="100" height="100" as="geometry">
            <mxPoint x="-23" y="235.5" as="sourcePoint" />
            <mxPoint x="77" y="135.5" as="targetPoint" />
            <Array as="points">
              <mxPoint x="1197" y="575.5" />
            </Array>
          </mxGeometry>
        </mxCell>
        <mxCell id="87" value="" style="edgeStyle=elbowEdgeStyle;elbow=horizontal;strokeWidth=2;rounded=0" parent="1" source="48" target="49" edge="1">
          <mxGeometry x="-23" y="135.5" width="100" height="100" as="geometry">
            <mxPoint x="-23" y="235.5" as="sourcePoint" />
            <mxPoint x="77" y="135.5" as="targetPoint" />
            <Array as="points">
              <mxPoint x="1367" y="535.5" />
            </Array>
          </mxGeometry>
        </mxCell>
        <mxCell id="88" value="" style="edgeStyle=elbowEdgeStyle;elbow=horizontal;strokeWidth=2;rounded=0" parent="1" source="48" target="50" edge="1">
          <mxGeometry x="-23" y="135.5" width="100" height="100" as="geometry">
            <mxPoint x="-23" y="235.5" as="sourcePoint" />
            <mxPoint x="77" y="135.5" as="targetPoint" />
            <Array as="points">
              <mxPoint x="1367" y="595.5" />
            </Array>
          </mxGeometry>
        </mxCell>
        <mxCell id="89" value="" style="edgeStyle=elbowEdgeStyle;elbow=horizontal;strokeWidth=2;rounded=0" parent="1" source="48" target="51" edge="1">
          <mxGeometry x="-23" y="135.5" width="100" height="100" as="geometry">
            <mxPoint x="-23" y="235.5" as="sourcePoint" />
            <mxPoint x="77" y="135.5" as="targetPoint" />
            <Array as="points">
              <mxPoint x="1367" y="625.5" />
            </Array>
          </mxGeometry>
        </mxCell>
        <mxCell id="90" value="" style="edgeStyle=elbowEdgeStyle;elbow=horizontal;strokeWidth=2;rounded=0" parent="1" source="52" target="53" edge="1">
          <mxGeometry x="-23" y="135.5" width="100" height="100" as="geometry">
            <mxPoint x="-23" y="235.5" as="sourcePoint" />
            <mxPoint x="77" y="135.5" as="targetPoint" />
            <Array as="points">
              <mxPoint x="1547" y="535.5" />
            </Array>
          </mxGeometry>
        </mxCell>
        <mxCell id="91" value="" style="edgeStyle=elbowEdgeStyle;elbow=horizontal;strokeWidth=2;rounded=0" parent="1" source="52" target="54" edge="1">
          <mxGeometry x="-23" y="135.5" width="100" height="100" as="geometry">
            <mxPoint x="-23" y="235.5" as="sourcePoint" />
            <mxPoint x="77" y="135.5" as="targetPoint" />
            <Array as="points">
              <mxPoint x="1547" y="575.5" />
            </Array>
          </mxGeometry>
        </mxCell>
        <mxCell id="92" value="" style="edgeStyle=elbowEdgeStyle;elbow=horizontal;strokeWidth=2;rounded=0" parent="1" source="52" target="55" edge="1">
          <mxGeometry x="-23" y="135.5" width="100" height="100" as="geometry">
            <mxPoint x="-23" y="235.5" as="sourcePoint" />
            <mxPoint x="77" y="135.5" as="targetPoint" />
            <Array as="points">
              <mxPoint x="1547" y="625.5" />
            </Array>
          </mxGeometry>
        </mxCell>
        <mxCell id="93" value="" style="edgeStyle=elbowEdgeStyle;elbow=horizontal;strokeWidth=2;rounded=0" parent="1" source="52" target="56" edge="1">
          <mxGeometry x="-23" y="135.5" width="100" height="100" as="geometry">
            <mxPoint x="-23" y="235.5" as="sourcePoint" />
            <mxPoint x="77" y="135.5" as="targetPoint" />
            <Array as="points">
              <mxPoint x="1547" y="675.5" />
            </Array>
          </mxGeometry>
        </mxCell>
        <mxCell id="94" value="" style="edgeStyle=elbowEdgeStyle;elbow=horizontal;strokeWidth=2;rounded=0" parent="1" source="52" target="57" edge="1">
          <mxGeometry x="-23" y="135.5" width="100" height="100" as="geometry">
            <mxPoint x="-23" y="235.5" as="sourcePoint" />
            <mxPoint x="77" y="135.5" as="targetPoint" />
            <Array as="points">
              <mxPoint x="1547" y="725.5" />
            </Array>
          </mxGeometry>
        </mxCell>
        <mxCell id="95" value="" style="edgeStyle=elbowEdgeStyle;elbow=horizontal;strokeWidth=2;rounded=0" parent="1" source="52" target="58" edge="1">
          <mxGeometry x="-23" y="135.5" width="100" height="100" as="geometry">
            <mxPoint x="-23" y="235.5" as="sourcePoint" />
            <mxPoint x="77" y="135.5" as="targetPoint" />
            <Array as="points">
              <mxPoint x="1547" y="765.5" />
            </Array>
          </mxGeometry>
        </mxCell>
        <mxCell id="103" value="" style="edgeStyle=elbowEdgeStyle;elbow=vertical;strokeWidth=2;rounded=0" parent="1" source="10" target="41" edge="1">
          <mxGeometry x="-23" y="135.5" width="100" height="100" as="geometry">
            <mxPoint x="-23" y="235.5" as="sourcePoint" />
            <mxPoint x="77" y="135.5" as="targetPoint" />
          </mxGeometry>
        </mxCell>
        <mxCell id="104" value="" style="edgeStyle=elbowEdgeStyle;elbow=vertical;strokeWidth=2;rounded=0" parent="1" source="4" target="48" edge="1">
          <mxGeometry x="-23" y="135.5" width="100" height="100" as="geometry">
            <mxPoint x="-23" y="235.5" as="sourcePoint" />
            <mxPoint x="77" y="135.5" as="targetPoint" />
          </mxGeometry>
        </mxCell>
        <mxCell id="105" value="" style="edgeStyle=elbowEdgeStyle;elbow=vertical;strokeWidth=2;rounded=0" parent="1" source="4" target="44" edge="1">
          <mxGeometry x="-23" y="135.5" width="100" height="100" as="geometry">
            <mxPoint x="-23" y="235.5" as="sourcePoint" />
            <mxPoint x="77" y="135.5" as="targetPoint" />
          </mxGeometry>
        </mxCell>
        <mxCell id="106" value="" style="edgeStyle=elbowEdgeStyle;elbow=vertical;strokeWidth=2;rounded=0" parent="1" source="4" target="52" edge="1">
          <mxGeometry x="-23" y="135.5" width="100" height="100" as="geometry">
            <mxPoint x="-23" y="235.5" as="sourcePoint" />
            <mxPoint x="77" y="135.5" as="targetPoint" />
          </mxGeometry>
        </mxCell>
        <mxCell id="2mehZbieD86rrKrOiFTV-150" value="" style="fillColor=#12AAB5;strokeColor=none;opacity=30;" parent="1" vertex="1">
          <mxGeometry x="120" y="445.5" width="500" height="81" as="geometry" />
        </mxCell>
        <mxCell id="2mehZbieD86rrKrOiFTV-151" value="云平台" style="rounded=1;fillColor=#23445D;gradientColor=none;strokeColor=none;fontColor=#FFFFFF;fontStyle=1;fontFamily=Tahoma;fontSize=14" parent="1" vertex="1">
          <mxGeometry x="274.9999999999999" y="335.5" width="190" height="81" as="geometry" />
        </mxCell>
        <mxCell id="2mehZbieD86rrKrOiFTV-152" value="深地铁财务" style="rounded=1;fillColor=#23445D;gradientColor=none;strokeColor=none;fontColor=#FFFFFF;fontStyle=1;fontFamily=Tahoma;fontSize=14" parent="1" vertex="1">
          <mxGeometry x="130" y="455.5" width="130" height="61" as="geometry" />
        </mxCell>
        <mxCell id="2mehZbieD86rrKrOiFTV-153" value="规则导入" style="rounded=1;fillColor=#23445D;gradientColor=none;strokeColor=none;fontColor=#FFFFFF;fontStyle=1;fontFamily=Tahoma;fontSize=14" parent="1" vertex="1">
          <mxGeometry x="130" y="545.5" width="130" height="61" as="geometry" />
        </mxCell>
        <mxCell id="2mehZbieD86rrKrOiFTV-154" value="复核" style="rounded=1;fillColor=#23445D;gradientColor=none;strokeColor=none;fontColor=#FFFFFF;fontStyle=1;fontFamily=Tahoma;fontSize=14" parent="1" vertex="1">
          <mxGeometry x="130" y="635.5" width="130" height="61" as="geometry" />
        </mxCell>
        <mxCell id="2mehZbieD86rrKrOiFTV-155" value="授权" style="rounded=1;fillColor=#23445D;gradientColor=none;strokeColor=none;fontColor=#FFFFFF;fontStyle=1;fontFamily=Tahoma;fontSize=14" parent="1" vertex="1">
          <mxGeometry x="130" y="725.5" width="130" height="61" as="geometry" />
        </mxCell>
        <mxCell id="2mehZbieD86rrKrOiFTV-156" value="二级承包商" style="rounded=1;fillColor=#23445D;gradientColor=none;strokeColor=none;fontColor=#FFFFFF;fontStyle=1;fontFamily=Tahoma;fontSize=14" parent="1" vertex="1">
          <mxGeometry x="480" y="455.5" width="130" height="61" as="geometry" />
        </mxCell>
        <mxCell id="2mehZbieD86rrKrOiFTV-157" value="转账申请" style="rounded=1;fillColor=#23445D;gradientColor=none;strokeColor=none;fontColor=#FFFFFF;fontStyle=1;fontFamily=Tahoma;fontSize=14" parent="1" vertex="1">
          <mxGeometry x="480" y="545.5" width="130" height="61" as="geometry" />
        </mxCell>
        <mxCell id="2mehZbieD86rrKrOiFTV-158" value="转账复核" style="rounded=1;fillColor=#23445D;gradientColor=none;strokeColor=none;fontColor=#FFFFFF;fontStyle=1;fontFamily=Tahoma;fontSize=14" parent="1" vertex="1">
          <mxGeometry x="480" y="635.5" width="130" height="61" as="geometry" />
        </mxCell>
        <mxCell id="2mehZbieD86rrKrOiFTV-159" value="转账授权" style="rounded=1;fillColor=#23445D;gradientColor=none;strokeColor=none;fontColor=#FFFFFF;fontStyle=1;fontFamily=Tahoma;fontSize=14" parent="1" vertex="1">
          <mxGeometry x="480" y="725.5" width="130" height="61" as="geometry" />
        </mxCell>
        <mxCell id="2mehZbieD86rrKrOiFTV-160" value="交易查询" style="rounded=1;fillColor=#23445D;gradientColor=none;strokeColor=none;fontColor=#FFFFFF;fontStyle=1;fontFamily=Tahoma;fontSize=14" parent="1" vertex="1">
          <mxGeometry x="480" y="815.5" width="130" height="61" as="geometry" />
        </mxCell>
        <mxCell id="2mehZbieD86rrKrOiFTV-163" value="" style="edgeStyle=elbowEdgeStyle;elbow=horizontal;strokeWidth=2;rounded=0" parent="1" source="2mehZbieD86rrKrOiFTV-152" target="2mehZbieD86rrKrOiFTV-153" edge="1">
          <mxGeometry x="-310" y="135.5" width="100" height="100" as="geometry">
            <mxPoint x="-310" y="235.5" as="sourcePoint" />
            <mxPoint x="-210" y="135.5" as="targetPoint" />
            <Array as="points">
              <mxPoint x="110" y="535.5" />
            </Array>
          </mxGeometry>
        </mxCell>
        <mxCell id="2mehZbieD86rrKrOiFTV-164" value="" style="edgeStyle=elbowEdgeStyle;elbow=horizontal;strokeWidth=2;rounded=0" parent="1" source="2mehZbieD86rrKrOiFTV-152" target="2mehZbieD86rrKrOiFTV-154" edge="1">
          <mxGeometry x="-310" y="135.5" width="100" height="100" as="geometry">
            <mxPoint x="-310" y="235.5" as="sourcePoint" />
            <mxPoint x="-210" y="135.5" as="targetPoint" />
            <Array as="points">
              <mxPoint x="110" y="575.5" />
            </Array>
          </mxGeometry>
        </mxCell>
        <mxCell id="2mehZbieD86rrKrOiFTV-165" value="" style="edgeStyle=elbowEdgeStyle;elbow=horizontal;strokeWidth=2;rounded=0" parent="1" source="2mehZbieD86rrKrOiFTV-152" target="2mehZbieD86rrKrOiFTV-155" edge="1">
          <mxGeometry x="-310" y="135.5" width="100" height="100" as="geometry">
            <mxPoint x="-310" y="235.5" as="sourcePoint" />
            <mxPoint x="-210" y="135.5" as="targetPoint" />
            <Array as="points">
              <mxPoint x="110" y="615.5" />
            </Array>
          </mxGeometry>
        </mxCell>
        <mxCell id="2mehZbieD86rrKrOiFTV-166" value="" style="edgeStyle=elbowEdgeStyle;elbow=horizontal;strokeWidth=2;rounded=0" parent="1" source="2mehZbieD86rrKrOiFTV-156" target="2mehZbieD86rrKrOiFTV-157" edge="1">
          <mxGeometry x="-310" y="135.5" width="100" height="100" as="geometry">
            <mxPoint x="-310" y="235.5" as="sourcePoint" />
            <mxPoint x="-210" y="135.5" as="targetPoint" />
            <Array as="points">
              <mxPoint x="460" y="535.5" />
            </Array>
          </mxGeometry>
        </mxCell>
        <mxCell id="2mehZbieD86rrKrOiFTV-167" value="" style="edgeStyle=elbowEdgeStyle;elbow=horizontal;strokeWidth=2;rounded=0" parent="1" source="2mehZbieD86rrKrOiFTV-156" target="2mehZbieD86rrKrOiFTV-158" edge="1">
          <mxGeometry x="-310" y="135.5" width="100" height="100" as="geometry">
            <mxPoint x="-310" y="235.5" as="sourcePoint" />
            <mxPoint x="-210" y="135.5" as="targetPoint" />
            <Array as="points">
              <mxPoint x="460" y="575.5" />
            </Array>
          </mxGeometry>
        </mxCell>
        <mxCell id="2mehZbieD86rrKrOiFTV-168" value="" style="edgeStyle=elbowEdgeStyle;elbow=horizontal;strokeWidth=2;rounded=0" parent="1" source="2mehZbieD86rrKrOiFTV-156" target="2mehZbieD86rrKrOiFTV-159" edge="1">
          <mxGeometry x="-310" y="135.5" width="100" height="100" as="geometry">
            <mxPoint x="-310" y="235.5" as="sourcePoint" />
            <mxPoint x="-210" y="135.5" as="targetPoint" />
            <Array as="points">
              <mxPoint x="460" y="625.5" />
            </Array>
          </mxGeometry>
        </mxCell>
        <mxCell id="2mehZbieD86rrKrOiFTV-169" value="" style="edgeStyle=elbowEdgeStyle;elbow=horizontal;strokeWidth=2;rounded=0" parent="1" source="2mehZbieD86rrKrOiFTV-156" target="2mehZbieD86rrKrOiFTV-160" edge="1">
          <mxGeometry x="-310" y="135.5" width="100" height="100" as="geometry">
            <mxPoint x="-310" y="235.5" as="sourcePoint" />
            <mxPoint x="-210" y="135.5" as="targetPoint" />
            <Array as="points">
              <mxPoint x="460" y="665.5" />
            </Array>
          </mxGeometry>
        </mxCell>
        <mxCell id="2mehZbieD86rrKrOiFTV-172" value="" style="edgeStyle=elbowEdgeStyle;elbow=vertical;strokeWidth=2;rounded=0" parent="1" source="2mehZbieD86rrKrOiFTV-151" target="2mehZbieD86rrKrOiFTV-152" edge="1">
          <mxGeometry x="-310" y="135.5" width="100" height="100" as="geometry">
            <mxPoint x="-310" y="235.5" as="sourcePoint" />
            <mxPoint x="-210" y="135.5" as="targetPoint" />
          </mxGeometry>
        </mxCell>
        <mxCell id="2mehZbieD86rrKrOiFTV-173" value="" style="edgeStyle=elbowEdgeStyle;elbow=vertical;strokeWidth=2;rounded=0" parent="1" source="2mehZbieD86rrKrOiFTV-151" edge="1">
          <mxGeometry x="-310" y="135.5" width="100" height="100" as="geometry">
            <mxPoint x="-310" y="235.5" as="sourcePoint" />
            <mxPoint x="370" y="455.5" as="targetPoint" />
            <Array as="points">
              <mxPoint x="370" y="417" />
            </Array>
          </mxGeometry>
        </mxCell>
        <mxCell id="2mehZbieD86rrKrOiFTV-174" value="" style="edgeStyle=elbowEdgeStyle;elbow=vertical;strokeWidth=2;rounded=0" parent="1" source="2mehZbieD86rrKrOiFTV-151" target="2mehZbieD86rrKrOiFTV-156" edge="1">
          <mxGeometry x="-310" y="135.5" width="100" height="100" as="geometry">
            <mxPoint x="-310" y="235.5" as="sourcePoint" />
            <mxPoint x="-210" y="135.5" as="targetPoint" />
          </mxGeometry>
        </mxCell>
        <mxCell id="2mehZbieD86rrKrOiFTV-180" value="" style="fillColor=#F2931E;strokeColor=none;opacity=30;" parent="1" vertex="1">
          <mxGeometry x="1100" y="893.25" width="150" height="264.5" as="geometry" />
        </mxCell>
        <mxCell id="WBlJyW78sbk73BthA4wj-125" value="回单打印？" style="rounded=1;fillColor=#23445D;gradientColor=none;strokeColor=none;fontColor=#FFFFFF;fontStyle=1;fontFamily=Tahoma;fontSize=14" vertex="1" parent="1">
          <mxGeometry x="480" y="893.25" width="130" height="61" as="geometry" />
        </mxCell>
        <mxCell id="WBlJyW78sbk73BthA4wj-126" value="规则查询" style="rounded=1;fillColor=#23445D;gradientColor=none;strokeColor=none;fontColor=#FFFFFF;fontStyle=1;fontFamily=Tahoma;fontSize=14" vertex="1" parent="1">
          <mxGeometry x="130" y="814.5" width="130" height="61" as="geometry" />
        </mxCell>
      </root>
    </mxGraphModel>
  </diagram>
</mxfile>
